PathFileType	4	(X/Y/Z)	 s02c0201.trc
DataRate	CameraRate	NumFrames	NumMarkers	Units	OrigDataRate	OrigDataStartFrame	OrigNumFrames
200	200	4	51	mm	200	1	2000
Frame#	Time	racr			lacr			c7			jug			rlel			rdr			llel			ldr			s2			lic			ric			lasi			rasi			rpsi			lpsi			rgt			lgt			rth1			rth2			rth3			rth4			rlfc			rmfc			rsh1			rsh2			rsh3			rsh4			rlmal			rmmal			rcal			rtoe			rmt5			rmt1			lth1			lth2			lth4			lth3			llfc			lmfc			lsh1			lsh2			lsh3			lsh4			llmal			lmmal			lcal			ltoe			lmt5			SBIKE			LBIKE			RBIKE			
		X1	Y1	Z1	X2	Y2	Z2	X3	Y3	Z3	X4	Y4	Z4	X5	Y5	Z5	X6	Y6	Z6	X7	Y7	Z7	X8	Y8	Z8	X9	Y9	Z9	X10	Y10	Z10	X11	Y11	Z11	X12	Y12	Z12	X13	Y13	Z13	X14	Y14	Z14	X15	Y15	Z15	X16	Y16	Z16	X17	Y17	Z17	X18	Y18	Z18	X19	Y19	Z19	X20	Y20	Z20	X21	Y21	Z21	X22	Y22	Z22	X23	Y23	Z23	X24	Y24	Z24	X25	Y25	Z25	X26	Y26	Z26	X27	Y27	Z27	X28	Y28	Z28	X29	Y29	Z29	X30	Y30	Z30	X31	Y31	Z31	X32	Y32	Z32	X33	Y33	Z33	X34	Y34	Z34	X35	Y35	Z35	X36	Y36	Z36	X37	Y37	Z37	X38	Y38	Z38	X39	Y39	Z39	X40	Y40	Z40	X41	Y41	Z41	X42	Y42	Z42	X43	Y43	Z43	X44	Y44	Z44	X45	Y45	Z45	X46	Y46	Z46	X47	Y47	Z47	X48	Y48	Z48	X49	Y49	Z49	X50	Y50	Z50	X51	Y51	Z51	
1	0.0050	464.430606	1315.920052	-132.635324	470.036003	1325.055395	-487.539954	484.046245	1360.187703	-315.794567	441.008186	1230.271208	-314.960761	587.032310	1072.205044	-119.946535	727.865255	890.626102	-108.516478	566.157631	1067.167626	-526.935956	713.069640	890.289024	-512.068081	3.486769	1100.474523	-316.150891	149.719701	1102.027285	-454.101519	130.287382	1117.196891	-178.268425	194.301211	1068.243837	-429.259311	179.379858	1083.051257	-197.902668	18.939960	1144.239600	-273.518541	28.712069	1157.065298	-359.062887	110.700338	1042.998288	-129.139804	93.260368	1004.701290	-486.878014	197.798417	1021.593104	-128.147780	283.729374	1017.141414	-136.383885	358.398365	982.946067	-111.014310	291.839245	1039.291014	-166.417981	485.981700	903.644816	-139.810525	483.029880	883.346287	-254.438893	458.480492	793.459556	-126.835799	428.161136	712.795694	-147.184105	365.663537	651.775681	-141.400015	438.947046	707.785702	-184.289017	292.158650	555.514924	-148.445781	300.112869	577.092251	-228.300280	214.107989	512.024938	-190.506005	498.957662	491.294052	-187.166824	390.119143	478.603734	-129.696221	416.890029	491.495567	-237.133423	190.759278	899.770416	-502.649823	252.249175	838.470241	-499.470212	280.818531	854.409835	-481.510632	272.829002	751.560649	-497.816535	320.754690	661.535460	-476.490842	322.076561	631.445903	-374.928088	280.730827	564.588521	-498.500628	261.442115	481.681425	-482.449730	201.910267	414.085768	-487.257046	278.934191	475.905168	-446.333356	138.280204	328.266915	-471.407848	154.955186	318.741501	-394.697687	61.815625	308.566760	-430.041383	307.833776	161.235500	-442.174211	202.138650	191.237551	-499.778184	-162.640278	860.576092	-310.051634	37.765353	86.562089	-514.486878	34.508482	82.498584	-114.119212	
2	0.0100	464.519591	1316.312411	-132.436093	470.051779	1325.044576	-487.542445	484.029614	1360.193016	-315.794695	441.017194	1230.287234	-314.896843	587.024670	1072.197164	-119.981879	727.867689	890.639950	-108.522740	566.151913	1067.166362	-526.898022	713.072298	890.298492	-512.095127	3.464340	1100.493137	-316.148271	149.707780	1102.031785	-454.105162	130.323483	1117.191710	-178.308228	194.300301	1068.238455	-429.250838	179.370154	1083.077105	-197.892486	18.939955	1144.262006	-273.518011	28.747040	1157.097118	-359.076823	110.707864	1043.004237	-129.134044	93.259376	1004.733289	-486.884615	197.783998	1021.601299	-128.146410	283.722261	1017.145376	-136.387096	358.368087	982.965628	-111.021438	291.830458	1039.304115	-166.425703	485.970647	903.633022	-139.825673	483.019940	883.344693	-254.472365	458.468326	793.475744	-126.862523	428.135072	712.775277	-147.190669	365.640849	651.786582	-141.400361	438.917000	707.776380	-184.280246	292.143962	555.507026	-148.440547	300.095637	577.095664	-228.313831	214.093189	512.007246	-190.515651	498.935226	491.305599	-187.168358	390.091840	478.623782	-129.687039	416.865705	491.503443	-237.154982	190.761024	899.795014	-502.639129	252.243108	838.511918	-499.453077	280.827610	854.428836	-481.488767	272.831196	751.592335	-497.803176	320.756152	661.566106	-476.486484	322.085294	631.474490	-374.927899	280.760123	564.610362	-498.496916	261.471837	481.696851	-482.443375	201.952446	414.098611	-487.262987	278.960955	475.952138	-446.348929	138.319887	328.267453	-471.415384	155.014201	318.766004	-394.696748	61.867870	308.587595	-430.059322	307.866991	161.194857	-442.156112	202.168070	191.215011	-499.799440	-162.610770	860.786005	-309.792899	37.790066	86.537783	-514.562606	34.510783	82.492274	-114.122230	
3	0.0150	464.439638	1315.913774	-132.619078	470.066474	1325.057933	-487.533388	484.029073	1360.227136	-315.810664	441.074133	1230.281105	-314.912456	587.032190	1072.197461	-119.986308	727.861436	890.635383	-108.537682	566.170434	1067.186932	-526.871866	713.081196	890.299175	-512.094845	3.456069	1100.515962	-316.138782	149.698507	1102.027338	-454.106706	130.317889	1117.209947	-178.288709	194.309340	1068.240229	-429.259003	179.369792	1083.084910	-197.893244	18.934379	1144.299122	-273.484499	28.729396	1157.121954	-359.070609	110.707360	1043.027608	-129.125317	93.253042	1004.742346	-486.891620	197.781808	1021.602050	-128.141621	283.722818	1017.136699	-136.394665	358.367912	982.955932	-111.033905	291.824960	1039.305681	-166.408349	485.946918	903.626670	-139.846293	483.005214	883.336936	-254.462680	458.422504	793.459108	-126.867642	428.110085	712.798766	-147.193618	365.613023	651.793458	-141.404246	438.893790	707.800148	-184.296931	292.102468	555.509594	-148.463350	300.077379	577.088865	-228.319491	214.062109	511.998048	-190.500446	498.910765	491.336681	-187.169925	390.081756	478.632472	-129.698666	416.863091	491.503076	-237.158565	190.762896	899.818926	-502.622701	252.254591	838.534904	-499.425321	280.829171	854.479021	-481.463160	272.846504	751.628683	-497.788260	320.768342	661.604823	-476.483353	322.098081	631.508801	-374.924210	280.780438	564.637602	-498.498446	261.496561	481.722181	-482.445956	201.998545	414.100348	-487.273330	278.980668	475.964001	-446.345868	138.376797	328.267985	-471.434107	155.065655	318.730997	-394.727962	61.923210	308.607645	-430.056970	307.880307	161.144275	-442.175271	202.196585	191.210304	-499.794686	-162.606149	860.698030	-310.129358	37.810546	86.521882	-514.569795	34.509714	82.505483	-114.120616	
4	0.0200	464.447339	1315.914192	-132.620413	470.094985	1325.065604	-487.544084	484.022623	1360.233680	-315.796211	441.110223	1230.286471	-314.911739	587.319317	1072.033481	-120.325242	727.864662	890.642096	-108.534659	566.330306	1067.162368	-526.581010	712.668381	890.470008	-512.453819	3.408636	1100.627235	-316.581672	149.699176	1102.036361	-454.088097	130.317018	1117.203248	-178.288542	194.295959	1068.249757	-429.276797	179.386870	1083.103400	-197.873886	20.446234	1143.237707	-274.745183	30.207051	1156.621648	-359.804546	111.356434	1042.186933	-130.200948	93.238858	1004.916727	-486.833200	195.864327	1020.905237	-128.381405	283.709619	1017.125933	-136.386063	358.359966	982.960987	-111.024141	291.578614	1039.317167	-166.234987	486.087148	903.548812	-139.921580	482.994440	883.348407	-254.461644	458.408189	793.472707	-126.866364	425.258235	710.846100	-148.553817	365.579818	651.791756	-141.412173	437.134210	706.955101	-184.432458	291.522701	556.347277	-147.703257	299.874972	577.081090	-228.666470	214.048188	512.002786	-190.515317	498.886087	491.353379	-187.177637	390.048543	478.648610	-129.705822	416.834613	491.524369	-237.159019	190.782730	899.850104	-502.603352	252.319325	838.379829	-499.272041	280.813814	854.998639	-481.863467	272.873922	751.670334	-497.796692	321.110556	661.188600	-476.676859	322.091125	631.527847	-374.938869	280.801772	564.642959	-498.494500	261.594613	481.781626	-482.533292	202.052451	414.102392	-487.280079	279.062921	475.953481	-446.355068	138.389019	328.473601	-471.281465	155.085582	318.736660	-394.732656	62.027326	308.663586	-430.116187	307.888526	161.103623	-442.174628	202.219939	191.187512	-499.798150	-162.604455	860.695429	-310.187829	37.799645	86.513242	-514.549821	34.503940	82.520384	-114.118211	
